<svg width="180" height="180" viewBox="0 0 180 180" fill="none" xmlns="http://www.w3.org/2000/svg">
  <rect width="180" height="180" rx="40" fill="#F7F3FE"/>
  <defs>
    <linearGradient id="jelly" x1="49" y1="39" x2="129" y2="143" gradientUnits="userSpaceOnUse">
      <stop stop-color="#F8C3E0"/>
      <stop offset="0.33" stop-color="#F19BC8"/>
      <stop offset="0.76" stop-color="#EC87B6"/>
      <stop offset="1" stop-color="#DC709F"/>
    </linearGradient>
    <linearGradient id="shine" x1="64" y1="54" x2="84" y2="77" gradientUnits="userSpaceOnUse">
      <stop stop-color="white" stop-opacity="0.86"/>
      <stop offset="1" stop-color="white" stop-opacity="0.16"/>
    </linearGradient>
    <linearGradient id="base" x1="91" y1="120" x2="91" y2="141" gradientUnits="userSpaceOnUse">
      <stop stop-color="#C75B8C" stop-opacity="0"/>
      <stop offset="1" stop-color="#C75B8C" stop-opacity="0.5"/>
    </linearGradient>
  </defs>
  <path
    d="M92 36C111 36 130 44 139 59C149 74 148 94 144 111C140 127 128 141 112 146C95 151 75 149 60 141C44 132 36 115 35 98C33 81 39 62 52 51C63 41 77 36 92 36Z"
    fill="url(#jelly)"
  />
  <path
    d="M43 108C50 125 65 135 82 139C102 143 124 137 138 121C133 136 123 142 112 146C95 151 75 149 60 141C50 134 45 123 43 108Z"
    fill="url(#base)"
  />
  <path
    d="M56 75C58 59 70 50 84 48C92 47 96 51 93 56C91 61 85 62 79 64C71 66 68 71 65 77C61 83 55 82 56 75Z"
    fill="url(#shine)"
  />
</svg>
