<svg width="180" height="180" viewBox="0 0 180 180" fill="none" xmlns="http://www.w3.org/2000/svg">
  <defs>
    <linearGradient id="jelly" x1="43" y1="29" x2="134" y2="151" gradientUnits="userSpaceOnUse">
      <stop stop-color="#F8C3E0"/>
      <stop offset="0.33" stop-color="#F19BC8"/>
      <stop offset="0.76" stop-color="#EC87B6"/>
      <stop offset="1" stop-color="#DC709F"/>
    </linearGradient>
    <linearGradient id="shine" x1="61" y1="47" x2="84" y2="74" gradientUnits="userSpaceOnUse">
      <stop stop-color="white" stop-opacity="0.86"/>
      <stop offset="1" stop-color="white" stop-opacity="0.16"/>
    </linearGradient>
    <linearGradient id="base" x1="91" y1="126" x2="91" y2="151" gradientUnits="userSpaceOnUse">
      <stop stop-color="#C75B8C" stop-opacity="0"/>
      <stop offset="1" stop-color="#C75B8C" stop-opacity="0.54"/>
    </linearGradient>
  </defs>
  <path
    d="M92 22C115 22 137 31 148 49C159 67 158 91 153 111C148 130 134 148 114 154C94 160 70 158 52 148C33 137 23 117 22 96C20 75 26 53 42 39C55 27 73 22 92 22Z"
    fill="url(#jelly)"
  />
  <path
    d="M31 109C40 129 58 142 78 146C102 151 129 143 146 125C139 143 128 151 114 155C94 161 70 158 52 148C40 140 33 127 31 109Z"
    fill="url(#base)"
  />
  <path
    d="M48 68C51 49 66 37 83 35C93 34 98 39 95 45C92 52 84 53 76 56C68 59 65 65 61 71C57 78 46 77 48 68Z"
    fill="url(#shine)"
  />
</svg>
